#!OML:ASF G:\JayActor3\Patient Classification 1\Patient 1\Session 6\male.ASF
:FULLY-SPECIFIED
:DEGREES
1320
root 5.25195 16.4251 -23.9028 203.491 -46.3003 -175.391
lowerback 28.2757 -1.60967 3.77
upperback 6.31893 -1.79022 0.990673
thorax -8.58046 -1.27479 -0.391151
lowerneck 0.259658 -0.262497 3.01189
upperneck 7.64376 -0.576889 0.0526629
head 2.35163 -0.266051 -0.509283
rclavicle 4.73108e-014 -1.80894e-014
rhumerus -34.1752 8.21951 -86.1094
rradius 48.483
rwrist 3.81394
rhand -11.988 -5.53525
rfingers 7.12502
rthumb 14.0686 -35.0391
lclavicle 4.73108e-014 -1.80894e-014
lhumerus -38.2258 -20.3275 88.0413
lradius 47.9131
lwrist 26.7812
lhand -17.6783 4.06994
lfingers 7.12502
lthumb 8.58084 33.8756
rfemur -54.4792 7.46038 22.969
rtibia 40.8844
rfoot -12.6549 -7.48353
rtoes 11.9042
lfemur -48.0801 11.0515 -24.0367
ltibia 36.3859
lfoot -14.1963 -1.11868
ltoes 6.89617
1321
root 5.25859 16.4251 -23.8982 203.539 -46.2949 -175.408
lowerback 28.3065 -1.58947 3.71615
upperback 6.31684 -1.77685 1.01009
thorax -8.59585 -1.26773 -0.342151
lowerneck 0.290239 -0.269977 3.01002
upperneck 7.63553 -0.58178 -0.00373186
head 2.34326 -0.270026 -0.526751
rclavicle 1.08536e-013 2.40529e-014
rhumerus -34.2049 8.21917 -86.0996
rradius 48.4946
rwrist 3.79654
rhand -11.9065 -5.39222
rfingers 7.12502
rthumb 14.1471 -34.8906
lclavicle 1.08536e-013 2.40529e-014
lhumerus -38.2465 -20.349 88.1204
lradius 47.9333
lwrist 26.8802
lhand -17.6788 4.05668
lfingers 7.12502
lthumb 8.58034 33.8623
rfemur -54.5453 7.43807 22.9675
rtibia 40.8746
rfoot -12.6162 -7.46179
rtoes 11.9473
lfemur -48.1354 10.968 -24.0172
ltibia 36.3771
lfoot -14.1845 -1.01833
ltoes 6.83318
1322
root 5.2651 16.4247 -23.8937 203.592 -46.2936 -175.426
lowerback 28.3281 -1.57512 3.68329
upperback 6.31628 -1.76648 1.0172
thorax -8.60592 -1.26239 -0.318265
lowerneck 0.325785 -0.278403 3.02515
upperneck 7.60933 -0.587691 -0.0564262
head 2.32807 -0.273961 -0.545827
rclavicle -3.37934e-014 5.4467e-014
rhumerus -34.2285 8.17921 -86.0935
rradius 48.4817
rwrist 3.78676
rhand -11.8362 -5.16061
rfingers 7.12502
rthumb 14.2148 -34.6542
lclavicle -3.37934e-014 5.4467e-014
lhumerus -38.2685 -20.3994 88.1868
lradius 47.9506
lwrist 26.9628
lhand -17.6744 4.05822
lfingers 7.12502
lthumb 8.58458 33.8637
rfemur -54.6161 7.41376 22.9654
rtibia 40.8687
rfoot -12.5841 -7.43891
rtoes 12.0171
lfemur -48.1985 10.8894 -24.0022
ltibia 36.3725
lfoot -14.1724 -0.925489
ltoes 6.77218
1323
root 5.27129 16.4242 -23.8894 203.643 -46.2968 -175.441
lowerback 28.3399 -1.56942 3.68171
upperback 6.31932 -1.76062 1.00631
thorax -8.60841 -1.25978 -0.331288
lowerneck 0.363039 -0.28623 3.05775
upperneck 7.56982 -0.593661 -0.0939668
head 2.30822 -0.2771 -0.562975
rclavicle -2.3059e-014 -1.31198e-014
rhumerus -34.2484 8.10886 -86.1029
rradius 48.4508
rwrist 3.79382
rhand -11.7876 -4.90059
rfingers 7.12502
rthumb 14.2616 -34.3909
lclavicle -2.3059e-014 -1.31198e-014
lhumerus -38.285 -20.4751 88.2279
lradius 47.9585
lwrist 27.0312
lhand -17.6474 4.06302
lfingers 7.12502
lthumb 8.61062 33.8674
rfemur -54.6864 7.38823 22.9653
rtibia 40.8643
rfoot -12.5541 -7.41846
rtoes 12.0766
lfemur -48.2653 10.8209 -23.9908
ltibia 36.3715
lfoot -14.159 -0.848195
ltoes 6.73003
1324
root 5.27725 16.4236 -23.8852 203.687 -46.305 -175.452
lowerback 28.351 -1.56448 3.68957
upperback 6.3237 -1.75323 0.996506
thorax -8.6091 -1.25669 -0.349122
lowerneck 0.393405 -0.293056 3.08949
upperneck 7.5318 -0.599244 -0.120309
head 2.29013 -0.279756 -0.57645
rclavicle 4.17448e-014 -2.92213e-014
rhumerus -34.2675 8.03531 -86.1003
rradius 48.3995
rwrist 3.82345
rhand -11.787 -4.57833
rfingers 7.12502
rthumb 14.2622 -34.0686
lclavicle 4.17448e-014 -2.92213e-014
lhumerus -38.2958 -20.5516 88.2678
lradius 47.9515
lwrist 27.0769
lhand -17.5956 4.06491
lfingers 7.12502
lthumb 8.66063 33.8673
rfemur -54.7509 7.36711 22.9647
rtibia 40.8599
rfoot -12.532 -7.40306
rtoes 12.1491
lfemur -48.3328 10.7694 -23.9847
ltibia 36.3746
lfoot -14.1413 -0.794516
ltoes 6.70271
1325
root 5.28288 16.4229 -23.8812 203.719 -46.3197 -175.455
lowerback 28.3638 -1.56257 3.71179
upperback 6.32957 -1.74591 0.986618
thorax -8.60922 -1.25401 -0.375246
lowerneck 0.42659 -0.296297 3.12407
upperneck 7.48838 -0.600291 -0.140183
head 2.26986 -0.279967 -0.588215
rclavicle 3.77691e-014 1.98785e-014
rhumerus -34.2903 7.97349 -86.1003
rradius 48.3473
rwrist 3.86891
rhand -11.8311 -4.29776
rfingers 7.12502
rthumb 14.2198 -33.791
lclavicle 3.77691e-014 1.98785e-014
lhumerus -38.3024 -20.6269 88.3018
lradius 47.9301
lwrist 27.1042
lhand -17.5306 4.06722
lfingers 7.12502
lthumb 8.72332 33.867
rfemur -54.8053 7.34897 22.969
rtibia 40.8534
rfoot -12.5139 -7.39591
rtoes 12.2118
lfemur -48.3985 10.7381 -23.9807
ltibia 36.3819
lfoot -14.1181 -0.770236
ltoes 6.69409
1326
root 5.28824 16.4221 -23.8775 203.74 -46.3367 -175.454
lowerback 28.3807 -1.56315 3.74141
upperback 6.33656 -1.73984 0.97625
thorax -8.6102 -1.25219 -0.405617
lowerneck 0.459537 -0.294643 3.15257
upperneck 7.44555 -0.595961 -0.142804
head 2.24994 -0.27731 -0.593376
rclavicle -1.35571e-013 -5.20816e-014
rhumerus -34.3171 7.92254 -86.1108
rradius 48.2984
rwrist 3.93309
rhand -11.9116 -4.10118
rfingers 7.12502
rthumb 14.1422 -33.5999
lclavicle -1.35571e-013 -5.20816e-014
lhumerus -38.3093 -20.7017 88.3293
lradius 47.8997
lwrist 27.1228
lhand -17.4671 4.07262
lfingers 7.12502
lthumb 8.78457 33.8698
rfemur -54.8487 7.33848 22.9728
rtibia 40.845
rfoot -12.4994 -7.39688
rtoes 12.2579
lfemur -48.4594 10.7275 -23.9818
ltibia 36.393
lfoot -14.091 -0.771911
ltoes 6.69253
1327
root 5.29341 16.4212 -23.874 203.748 -46.3545 -175.446
lowerback 28.4031 -1.56613 3.77546
upperback 6.34297 -1.73538 0.9661
thorax -8.61472 -1.25129 -0.437543
lowerneck 0.491844 -0.287701 3.17606
upperneck 7.40606 -0.585664 -0.131385
head 2.23136 -0.271554 -0.593151
rclavicle -7.79236e-014 2.72335e-014
rhumerus -34.35 7.89526 -86.1393
rradius 48.269
rwrist 3.99777
rhand -12.01 -4.05502
rfingers 7.12502
rthumb 14.0473 -33.5603
lclavicle -7.79236e-014 2.72335e-014
lhumerus -38.3204 -20.7733 88.3495
lradius 47.8626
lwrist 27.1356
lhand -17.4119 4.08628
lfingers 7.12502
lthumb 8.83786 33.8812
rfemur -54.8823 7.3373 22.9777
rtibia 40.8348
rfoot -12.4868 -7.40511
rtoes 12.282
lfemur -48.5138 10.7344 -23.9832
ltibia 36.407
lfoot -14.0621 -0.7978
ltoes 6.71952
1328
root 5.29839 16.4204 -23.8708 203.748 -46.3714 -175.433
lowerback 28.4289 -1.56894 3.8066
upperback 6.34808 -1.73096 0.959505
thorax -8.62218 -1.25038 -0.463683
lowerneck 0.521215 -0.277326 3.19571
upperneck 7.37156 -0.571304 -0.115726
head 2.21504 -0.263803 -0.590914
rclavicle -3.1408e-014 3.49861e-014
rhumerus -34.3848 7.87958 -86.1702
rradius 48.2517
rwrist 4.04804
rhand -12.0581 -4.09729
rfingers 7.12502
rthumb 14.001 -33.6058
lclavicle -3.1408e-014 3.49861e-014
lhumerus -38.3355 -20.837 88.3681
lradius 47.8196
lwrist 27.1398
lhand -17.3774 4.10665
lfingers 7.12502
lthumb 8.87112 33.9002
rfemur -54.9088 7.34164 22.9839
rtibia 40.8236
rfoot -12.4751 -7.41489
rtoes 12.3122
lfemur -48.5641 10.754 -23.9853
ltibia 36.4227
lfoot -14.0324 -0.835629
ltoes 6.74149
1329
root 5.30316 16.4196 -23.8679 203.744 -46.3843 -175.421
lowerback 28.4559 -1.57132 3.82907
upperback 6.3515 -1.72794 0.955539
thorax -8.63199 -1.24992 -0.481329
lowerneck 0.551006 -0.264757 3.21391
upperneck 7.33933 -0.553825 -0.104081
head 2.19946 -0.254659 -0.589671
rclavicle -7.27552e-014 1.68967e-014
rhumerus -34.4192 7.87382 -86.202
rradius 48.2439
rwrist 4.07012
rhand -12.0523 -4.18996
rfingers 7.12502
rthumb 14.0066 -33.6981
lclavicle -7.27552e-014 1.68967e-014
lhumerus -38.3546 -20.8911 88.3843
lradius 47.7718
lwrist 27.1392
lhand -17.3621 4.12953
lfingers 7.12502
lthumb 8.88597 33.9224
rfemur -54.9301 7.35007 22.9885
rtibia 40.8119
rfoot -12.461 -7.42348
rtoes 12.3368
lfemur -48.6073 10.7778 -23.9874
ltibia 36.4388
lfoot -14.0051 -0.878385
ltoes 6.78702
1330
root 5.30776 16.4191 -23.8653 203.74 -46.3936 -175.408
lowerback 28.4787 -1.57275 3.84174
upperback 6.35271 -1.72578 0.956328
thorax -8.64195 -1.24954 -0.487809
lowerneck 0.575273 -0.251125 3.22962
upperneck 7.31939 -0.535009 -0.100404
head 2.18894 -0.245077 -0.590619
rclavicle 1.59028e-014 -8.82604e-014
rhumerus -34.453 7.88404 -86.2292
rradius 48.2403
rwrist 4.08276
rhand -12.0204 -4.27483
rfingers 7.12502
rthumb 14.0373 -33.7808
lclavicle 1.59028e-014 -8.82604e-014
lhumerus -38.3753 -20.9292 88.399
lradius 47.7214
lwrist 27.1345
lhand -17.3714 4.15141
lfingers 7.12502
lthumb 8.87694 33.9447
rfemur -54.951 7.36247 22.9932
rtibia 40.8002
rfoot -12.4457 -7.433
rtoes 12.3616
lfemur -48.6479 10.7997 -23.9852
ltibia 36.4542
lfoot -13.9803 -0.919117
ltoes 6.85706
1331
root 5.31208 16.4188 -23.8632 203.738 -46.3993 -175.394
lowerback 28.4943 -1.57333 3.8476
upperback 6.35214 -1.72409 0.960068
thorax -8.65016 -1.24907 -0.487093
lowerneck 0.599253 -0.237619 3.24389
upperneck 7.3054 -0.516082 -0.104554
head 2.18043 -0.235657 -0.593841
rclavicle -2.06736e-014 -2.24627e-014
rhumerus -34.4836 7.90327 -86.2507
rradius 48.2372
rwrist 4.08483
rhand -11.9637 -4.34985
rfingers 7.12502
rthumb 14.092 -33.852
lclavicle -2.06736e-014 -2.24627e-014
lhumerus -38.3963 -20.955 88.4128
lradius 47.6683
lwrist 27.1239
lhand -17.3929 4.17629
lfingers 7.12502
lthumb 8.85624 33.9704
rfemur -54.9734 7.37393 22.9997
rtibia 40.7888
rfoot -12.4241 -7.44112
rtoes 12.3678
lfemur -48.6862 10.8153 -23.9794
ltibia 36.4678
lfoot -13.9585 -0.949179
ltoes 6.92688
1332
root 5.31611 16.4186 -23.8613 203.738 -46.4028 -175.385
lowerback 28.5034 -1.57323 3.84749
upperback 6.35255 -1.72343 0.964919
thorax -8.65398 -1.2489 -0.481558
lowerneck 0.616139 -0.226221 3.25323
upperneck 7.29779 -0.500385 -0.106945
head 2.17522 -0.227868 -0.595798
rclavicle 0 7.95139e-015
rhumerus -34.5059 7.92493 -86.261
rradius 48.2158
rwrist 4.10062
rhand -11.9287 -4.32589
rfingers 7.12502
rthumb 14.1257 -33.8257
lclavicle 0 7.95139e-015
lhumerus -38.4118 -20.9723 88.4221
lradius 47.6128
lwrist 27.1129
lhand -17.4211 4.19301
lfingers 7.12502
lthumb 8.82905 33.9883
rfemur -54.9953 7.38529 23.0027
rtibia 40.7786
rfoot -12.4001 -7.45022
rtoes 12.3719
lfemur -48.7185 10.8176 -23.9699
ltibia 36.4784
lfoot -13.9405 -0.962285
ltoes 6.99295
1333
root 5.31984 16.4186 -23.8598 203.741 -46.4058 -175.38
lowerback 28.507 -1.57371 3.84724
upperback 6.35465 -1.72414 0.96765
thorax -8.6533 -1.24934 -0.478036
lowerneck 0.634363 -0.217932 3.26089
upperneck 7.28506 -0.488723 -0.10621
head 2.16802 -0.222048 -0.596511
rclavicle -7.83212e-014 1.68967e-014
rhumerus -34.522 7.94252 -86.2668
rradius 48.1857
rwrist 4.12508
rhand -11.9084 -4.2334
rfingers 7.12502
rthumb 14.1453 -33.7319
lclavicle -7.83212e-014 1.68967e-014
lhumerus -38.4215 -20.9883 88.4245
lradius 47.557
lwrist 27.1066
lhand -17.4521 4.20513
lfingers 7.12502
lthumb 8.79911 34.0017
rfemur -55.0156 7.39115 23.006
rtibia 40.7703
rfoot -12.3704 -7.45913
rtoes 12.3565
lfemur -48.7439 10.8065 -23.9577
ltibia 36.4856
lfoot -13.9252 -0.958287
ltoes 7.0438
